IKResults
version=1
nRows=11
nColumns=40
inDegrees=yes

Units are S.I. units (second, meters, Newtons, ...)
Angles are in degrees.

endheader
time	pelvis_tilt	pelvis_list	pelvis_rotation	pelvis_tx	pelvis_ty	pelvis_tz	hip_flexion_r	hip_adduction_r	hip_rotation_r	knee_angle_r	knee_angle_r_beta	ankle_angle_r	subtalar_angle_r	mtp_angle_r	hip_flexion_l	hip_adduction_l	hip_rotation_l	knee_angle_l	knee_angle_l_beta	ankle_angle_l	subtalar_angle_l	mtp_angle_l	lumbar_extension	lumbar_bending	lumbar_rotation	arm_flex_r	arm_add_r	arm_rot_r	elbow_flex_r	pro_sup_r	wrist_flex_r	wrist_dev_r	arm_flex_l	arm_add_l	arm_rot_l	elbow_flex_l	pro_sup_l	wrist_flex_l	wrist_dev_l
      0.95000000	     16.15593108	     -5.58609222	      7.05971502	      0.38482499	      0.90563006	     -1.02235549	     13.05347718	      4.12990431	    -14.30206218	    -30.96194952	     -0.54038796	     -2.64049119	    -10.66583085	     -5.63963294	    -27.35665595	      8.36805386	      1.30920818	    -44.47841653	     -0.77629481	     -9.15518353	     12.74601315	     -5.50266277	    -20.16074814	      9.08438357	     -9.12060443	    -14.39222666	    -11.93074846	     -0.00275852	     15.91353180	     89.95437384	      0.00000000	      0.00000000	      9.00322532	     11.54011777	     11.42342001	     56.66440884	     89.95437384	      0.00000000	      0.00000000
      0.96000000	     16.65611326	     -6.62720401	      6.59646112	      0.39970225	      0.90835519	     -1.02005187	     11.53267190	      6.38480102	    -11.98967264	    -30.47990451	     -0.53197469	     -2.87410352	    -13.78743451	     -3.42799580	    -26.43584600	      9.42711222	      1.94102566	    -47.36167514	     -0.82661717	    -12.22058783	     13.39938586	     -4.49030696	    -20.73135973	     10.08712412	     -7.98840349	    -13.83543461	    -12.17691489	      0.64346236	     16.32286506	     89.95437384	      0.00000000	      0.00000000	      8.73862902	     11.05066661	     11.30169534	     56.04043945	     89.95437384	      0.00000000	      0.00000000
      0.97000000	     17.02151903	     -6.71252428	      6.34257267	      0.41406731	      0.91112830	     -1.01893366	     10.17094322	      6.92609334	    -11.25232270	    -30.57780923	     -0.53368345	     -1.75901478	    -13.79734947	     -3.15659647	    -25.22069363	      9.29764420	      1.39201285	    -50.13893135	     -0.87508944	    -14.44804179	     14.76629270	     -4.05155217	    -21.22308174	     10.16814315	     -7.39740226	    -13.01922446	    -12.20729947	      0.54499842	     16.44921826	     89.95437384	      0.00000000	      0.00000000	      8.48000495	     10.68458848	     11.09877365	     55.30399236	     89.95437384	      0.00000000	      0.00000000
      0.98000000	     17.29510585	     -6.66826745	      6.07370221	      0.42801249	      0.91400069	     -1.01799293	      8.79318222	      7.31872187	    -10.32219303	    -30.49261326	     -0.53219650	     -0.75437560	    -13.94276447	     -2.88143466	    -23.91690184	      8.87669958	      0.69069502	    -52.68428395	     -0.91951422	    -14.49141926	     16.35428237	     -3.63138625	    -21.64913501	     10.09966707	     -6.83797960	    -12.23148882	    -12.25644587	      0.72434490	     16.74791941	     89.95437384	      0.00000000	      0.00000000	      8.27072702	     10.32615701	     10.87417991	     54.30857729	     89.95437384	      0.00000000	      0.00000000
      0.99000000	     17.51540507	     -6.47622172	      5.85387731	      0.44178737	      0.91701584	     -1.01725480	      7.42426949	      7.47731299	     -9.49317169	    -30.39963739	     -0.53057376	      0.18811275	    -14.05731612	     -2.56464291	    -22.62381506	      8.20979229	     -0.13827684	    -55.03780532	     -0.96059092	    -11.92030922	     17.16621626	     -3.35822536	    -22.01563606	      9.87824880	     -6.39173286	    -11.43899969	    -12.30108347	      0.98808030	     17.14027669	     89.95437384	      0.00000000	      0.00000000	      8.00188971	     10.00005243	     10.61966820	     53.22457439	     89.95437384	      0.00000000	      0.00000000
      1.00000000	     17.74490950	     -6.26005971	      5.65898914	      0.45527397	      0.92038190	     -1.01662153	      5.91400651	      7.55532269	     -8.88279444	    -30.02527742	     -0.52403995	      1.03539504	    -14.07396392	     -2.26737822	    -21.26507962	      7.56966731	     -0.78854396	    -57.17577403	     -0.99790551	     -8.57205451	     17.76123424	     -3.10645340	    -22.39759439	      9.61101662	     -6.03709876	    -10.55375783	    -12.33037298	      1.20686755	     17.51275815	     89.95437384	      0.00000000	      0.00000000	      7.71385097	      9.69133682	     10.39916133	     51.95357833	     89.95437384	      0.00000000	      0.00000000
      1.01000000	     17.91853087	     -6.12125060	      5.55450922	      0.46858487	      0.92382297	     -1.01582481	      4.35317522	      7.66418232	     -8.54530758	    -29.36132238	     -0.51245175	      1.76258846	    -13.99547686	     -1.94471160	    -19.77583683	      7.11645853	     -1.39893841	    -58.99612129	     -1.02967656	     -5.71818783	     18.12116465	     -2.68609635	    -22.69503611	      9.41537157	     -5.72497851	     -9.68876902	    -12.33240152	      1.41610161	     17.96375609	     89.95437384	      0.00000000	      0.00000000	      7.40890582	      9.42959524	     10.11313422	     50.55067439	     89.95437384	      0.00000000	      0.00000000
      1.02000000	     18.12689214	     -6.15289889	      5.53620386	      0.48188329	      0.92749109	     -1.01507488	      2.64304804	      8.06132648	     -8.02849169	    -28.49455421	     -0.49732379	      2.95417981	    -13.87844620	      5.34590888	    -18.23134170	      6.86886518	     -1.88309590	    -60.71562858	     -1.05968763	     -2.62738127	     18.02825364	     10.60221499	    -22.98854578	      9.41479835	     -5.46152353	     -8.91224283	    -12.38382831	      1.59995912	     18.66561287	     89.95437384	      0.00000000	      0.00000000	      7.06044706	      9.19427097	      9.83115167	     49.01597851	     89.95437384	      0.00000000	      0.00000000
      1.03000000	     18.24107835	     -5.91374168	      5.35501461	      0.49494069	      0.93109458	     -1.01443856	      0.99618352	      7.99616045	     -7.72423736	    -27.55467025	     -0.48091972	      3.64448839	    -13.47978335	      5.24807251	    -16.71219962	      6.27752527	     -2.34233594	    -61.82231539	     -1.07900295	     -1.10036940	     18.48225968	     10.51224371	    -23.20978597	      9.08536121	     -5.21269676	     -8.09939329	    -12.40074252	      1.58982215	     19.35464932	     89.95437384	      0.00000000	      0.00000000	      6.70663555	      8.93236561	      9.67690925	     47.32522118	     89.95437384	      0.00000000	      0.00000000
      1.04000000	     18.38757127	     -5.73482585	      5.19792134	      0.50802789	      0.93465343	     -1.01378314	     -0.70895449	      8.00800482	     -7.35427471	    -26.53497154	     -0.46312262	      4.19699394	    -13.25912199	      5.19617007	    -15.26016242	      5.81912580	     -2.68426221	    -62.62234590	     -1.09296612	      0.26957545	     18.69812059	     10.66950383	    -23.45795738	      8.82499030	     -4.96634303	     -7.42502888	    -12.45109430	      1.50943430	     20.37821994	     89.95437384	      0.00000000	      0.00000000	      6.27230409	      8.76708910	      9.33193244	     45.63076051	     89.95437384	      0.00000000	      0.00000000
      1.05000000	     18.30826417	     -5.38177967	      4.88869803	      0.52088185	      0.93783603	     -1.01313697	     -2.12681111	      7.73411773	     -7.07163064	    -25.59086038	     -0.44664477	      4.68976511	    -12.96815787	      5.10592533	    -13.59041348	      5.11707737	     -2.90211052	    -63.14579257	     -1.10210199	      1.42381197	     18.79968860	     10.66923393	    -23.50251740	      8.33387287	     -4.73314262	     -6.69317316	    -12.49672924	      1.38052822	     21.38131578	     89.95437384	      0.00000000	      0.00000000	      5.77020625	      8.56978862	      9.18250309	     43.91720565	     89.95437384	      0.00000000	      0.00000000
